<?xml version="1.0" encoding="UTF-8" standalone="no"?>
<!-- Created with Inkscape (http://www.inkscape.org/) -->

<svg
   width="64.000984"
   height="64.000984"
   viewBox="0 0 16.933593 16.933593"
   version="1.1"
   id="svg5"
   xml:space="preserve"
   xmlns="http://www.w3.org/2000/svg"
   xmlns:svg="http://www.w3.org/2000/svg"><defs
     id="defs2" /><g
     id="layer34"
     style="display:inline"><g
       id="layer65"><path
         style="color:#000000;fill:#52dfff;fill-opacity:1;-inkscape-stroke:none"
         d="M 8.4667969,0 C 3.8033257,0 0,3.8033257 0,8.4667969 c 0,4.6634711 3.8033257,8.4667971 8.4667969,8.4667971 4.6634711,0 8.4667971,-3.803326 8.4667971,-8.4667971 C 16.933594,3.8033257 13.130268,0 8.4667969,0 Z m 0,2.1171875 c 3.5195391,0 6.3496091,2.8300703 6.3496091,6.3496094 0,3.5195391 -2.83007,6.3496091 -6.3496091,6.3496091 -3.5195391,0 -6.3496094,-2.83007 -6.3496094,-6.3496091 0,-3.5195391 2.8300703,-6.3496094 6.3496094,-6.3496094 z"
         id="path3561" /><path
         style="fill:#52dfff;fill-opacity:1;stroke:none;stroke-width:0.707107;stroke-dasharray:none;stroke-opacity:1"
         d="m 31.09375,16.023438 c 2.81356,-0.141981 5.400652,0.380073 7.789062,1.517578 4.435072,2.112247 7.700671,6.222326 8.734376,10.90625 0.378771,1.716293 0.350548,1.438343 0.345703,3.576172 -0.0048,2.144691 0.02145,1.876725 -0.337891,3.501953 -1.351856,6.114259 -6.356023,10.991522 -12.503906,12.183593 -1.343014,0.260411 -2.901913,0.364393 -3.673828,0.314454 -3.29987,-0.213488 -5.950481,-1.120414 -8.335938,-2.707032 -1.794032,-1.193248 -3.364243,-2.779836 -4.548828,-4.603515 -2.731497,-4.205164 -3.331304,-9.524064 -1.611328,-14.220703 0.289101,-0.789432 1.201953,-2.590092 1.65039,-3.261719 0.742284,-1.111722 1.048271,-1.487663 2.150391,-2.585938 2.814472,-2.804651 6.481848,-4.426309 10.341797,-4.621093 z"
         id="path3563"
         transform="scale(0.26458333)" /></g></g></svg>
