<?xml version="1.0" encoding="UTF-8" standalone="no"?>
<!-- Created with Inkscape (http://www.inkscape.org/) -->

<svg
   width="64"
   height="53"
   viewBox="0 0 16.933333 14.022916"
   version="1.1"
   id="svg5"
   xml:space="preserve"
   xmlns="http://www.w3.org/2000/svg"
   xmlns:svg="http://www.w3.org/2000/svg"><defs
     id="defs2" /><g
     id="layer48"
     style="display:inline"
     transform="translate(0,-1.3229166)"><g
       id="layer74"><path
         id="path5812"
         style="fill:#efe463;fill-opacity:1;stroke:none;stroke-width:2.69;stroke-linecap:square;stroke-linejoin:round;stroke-dasharray:none;stroke-opacity:1"
         d="M 11.641666,1.3229166 4.4979166,9.5249998 3.0427083,8.0697915 3.0421915,8.0703083 A 0.5604164,0.56041622 0 0 0 2.6458333,7.906494 0.5604164,0.56041622 0 0 0 2.0856608,8.4666665 0.5604164,0.56041622 0 0 0 2.2499918,8.862508 L 2.2489618,8.863538 3.7041666,10.31875 0,14.022916 v 1.322917 h 1.3229166 l 3.7041666,-3.704167 1.4552083,1.455209 0.00103,-0.001 A 0.5604164,0.56041622 0 0 0 6.8791665,13.260172 0.5604164,0.56041622 0 0 0 7.439339,12.7 0.5604164,0.56041622 0 0 0 7.2755248,12.303642 l 5.167e-4,-5.17e-4 -1.4552083,-1.455209 8.2020828,-7.1437494 v -2.38125 z" /><path
         id="path6090"
         style="fill:#efe463;fill-opacity:1;stroke:none;stroke-width:0.264583;stroke-linecap:butt;stroke-linejoin:round;stroke-dasharray:none;stroke-opacity:1"
         d="m 16.933333,5.5562499 -2.910417,0.9260416 2.910417,0.9260417 z m -4.7625,1.8520833 2.248958,4.4979168 1.719792,-1.719792 z" /></g></g></svg>
