<?xml version="1.0" encoding="UTF-8" standalone="no"?>
<!-- Created with Inkscape (http://www.inkscape.org/) -->

<svg
   width="64.000984"
   height="64.000984"
   viewBox="0 0 16.933593 16.933593"
   version="1.1"
   id="svg5"
   xml:space="preserve"
   xmlns="http://www.w3.org/2000/svg"
   xmlns:svg="http://www.w3.org/2000/svg"><defs
     id="defs2" /><g
     id="layer37"
     style="display:inline"><g
       id="layer67"><path
         style="color:#000000;display:inline;fill:#52dfff;fill-opacity:1;-inkscape-stroke:none"
         d="M 8.4667969,0 C 3.8033257,0 0,3.8033257 0,8.4667969 c 0,4.6634711 3.8033257,8.4667971 8.4667969,8.4667971 4.6634711,0 8.4667971,-3.803326 8.4667971,-8.4667971 C 16.933594,3.8033257 13.130268,0 8.4667969,0 Z m 0,2.1171875 c 3.5195391,0 6.3496091,2.8300703 6.3496091,6.3496094 0,3.5195391 -2.83007,6.3496091 -6.3496091,6.3496091 -3.5195391,0 -6.3496094,-2.83007 -6.3496094,-6.3496091 0,-3.5195391 2.8300703,-6.3496094 6.3496094,-6.3496094 z"
         id="path4363" /><path
         style="display:inline;fill:#219a5b;fill-opacity:1;stroke-width:1.32292"
         d="M 8.4666663,16.933333 C 5.0270831,13.493749 0,9.2604162 0,6.217708 0,2.1166666 4.2333331,-1.8520832 8.4666663,3.96875 Z m 5.241e-4,0 C 11.906774,13.493749 16.933857,9.2604162 16.933857,6.217708 c 0,-4.1010414 -4.233333,-8.0697912 -8.4666666,-2.248958 z"
         id="path4366"
         class="UnoptimicedTransforms"
         transform="matrix(0.4980625,0,0,0.4980625,4.2497372,3.7369744)" /></g></g></svg>
