<?xml version="1.0" encoding="UTF-8" standalone="no"?>
<!-- Created with Inkscape (http://www.inkscape.org/) -->

<svg
   width="64.001953"
   height="64.001953"
   viewBox="0 0 16.93385 16.93385"
   version="1.1"
   id="svg5"
   xml:space="preserve"
   xmlns="http://www.w3.org/2000/svg"
   xmlns:svg="http://www.w3.org/2000/svg"><defs
     id="defs2" /><g
     id="layer32"
     style="display:inline"><g
       id="layer64"><path
         id="path3259"
         style="color:#000000;fill:#f2ba58;fill-opacity:1;-inkscape-stroke:none"
         d="m 0,0 v 8.7302163 c 0,1.0583319 0.56722696,1.8248447 1.2381673,2.6680537 0.6709404,0.843209 1.532906,1.700515 2.4256917,2.490288 0.8927857,0.789772 1.8133626,1.506375 2.6055256,2.043286 0.3960816,0.268454 0.7569248,0.49257 1.089856,0.664042 0.3329311,0.171472 0.5562111,0.337964 1.1074259,0.337964 0.5512147,0 0.7744947,-0.166492 1.1074259,-0.337964 0.3329312,-0.171472 0.6937746,-0.395588 1.0898556,-0.664042 0.792163,-0.536911 1.712741,-1.253514 2.605526,-2.043286 0.892786,-0.789773 1.75475,-1.647079 2.425692,-2.490288 0.67094,-0.843209 1.238684,-1.6097218 1.238684,-2.6680537 V 0 H 8.4666665 Z M 2.1171834,2.1171834 H 8.4666665 14.81615 v 6.6130329 c 0,-1e-6 -0.224459,0.6571771 -0.777214,1.3518557 -0.552755,0.694679 -1.344958,1.491024 -2.17196,2.222603 -0.827003,0.731578 -1.694437,1.403009 -2.390552,1.874821 -0.3480576,0.235905 -0.6559101,0.423653 -0.872815,0.535368 -0.048497,0.02498 -0.095919,0.04309 -0.137976,0.05736 C 8.42353,14.757974 8.376503,14.739754 8.3281737,14.714864 8.1112688,14.603149 7.8049666,14.415401 7.456909,14.179496 6.760794,13.707684 5.8933598,13.036253 5.0663573,12.304675 4.2393549,11.573096 3.4471519,10.776751 2.8943969,10.082072 2.3416419,9.3873934 2.1171834,8.7302153 2.1171834,8.7302163 Z" /><path
         style="fill:#f2ba58;fill-opacity:1;stroke:none;stroke-width:1;stroke-dasharray:none;stroke-opacity:1"
         d="M 15.955078,16 H 32 48.044922 l -0.01172,4.572266 -0.02734,10.597656 c -0.686762,1.311197 -1.739779,2.780611 -4.86914,5.914062 -3.273284,3.277563 -7.129562,6.363041 -10.986328,9.119141 -0.05423,0.03875 -0.106139,0.0766 -0.160157,0.115234 -3.846415,-2.654601 -8.404492,-6.352133 -11.849609,-9.925781 -2.497286,-2.590456 -3.49541,-4.000204 -4.146484,-5.226562 l -0.02734,-10.59375 z"
         id="path3346"
         transform="scale(0.26458333)" /></g></g></svg>
