<?xml version="1.0" encoding="UTF-8" standalone="no"?>
<!-- Created with Inkscape (http://www.inkscape.org/) -->

<svg
   width="64.001953"
   height="64.001953"
   viewBox="0 0 16.93385 16.93385"
   version="1.1"
   id="svg5"
   xml:space="preserve"
   xmlns="http://www.w3.org/2000/svg"
   xmlns:svg="http://www.w3.org/2000/svg"><defs
     id="defs2" /><g
     id="layer43"
     style="display:inline"><g
       id="layer71"><path
         id="path4862"
         style="color:#000000;display:inline;fill:#ce69ff;fill-opacity:1;-inkscape-stroke:none"
         d="m 15.33188,3.5217488 -1.390612,1.7192749 c 0.555492,0.9442805 0.874882,2.0457272 0.874882,3.2256428 0,3.5195355 -2.829948,6.3494835 -6.3494835,6.3494835 -1.8046606,0 -3.4265485,-0.745013 -4.5800821,-1.944584 l -1.3539225,1.624707 c 1.5297957,1.505932 3.6263843,2.437577 5.9340046,2.437577 4.6634665,0 8.4671835,-3.803717 8.4671835,-8.4671835 0,-1.8434779 -0.595131,-3.5520627 -1.60197,-4.9449177 z" /><path
         id="path4864"
         style="display:inline;fill:#ce69ff;fill-opacity:1;stroke:none;stroke-width:0.707107;stroke-dasharray:none;stroke-opacity:1"
         d="m 47.11914,26.701172 -8.955078,11.072265 c -2.003899,2.478542 -5.595868,2.957985 -8.179687,1.091797 L 25.527344,35.640625 19.863281,42.4375 c 0.95134,1.103435 2.047973,2.080711 3.248047,2.878906 2.385455,1.586616 5.036071,2.493543 8.335937,2.707031 0.771915,0.04994 2.330816,-0.05404 3.673829,-0.314453 6.147876,-1.19207 11.152051,-6.069341 12.503906,-12.183594 0.35934,-1.625226 0.33309,-1.357264 0.33789,-3.501953 0.0048,-2.137827 0.03307,-1.85988 -0.345703,-3.576172 -0.130728,-0.592354 -0.298076,-1.174975 -0.498047,-1.746093 z"
         transform="scale(0.26458333)" /><path
         id="path4866"
         style="color:#000000;display:inline;fill:#ff6152;fill-opacity:1;-inkscape-stroke:none"
         d="m 0,0 v 8.7302163 c 0,0.991327 0.49920639,1.7272967 1.1136271,2.5094077 L 2.5223266,9.548771 C 2.2389886,9.0852336 2.1171834,8.7302156 2.1171834,8.7302163 V 2.1171834 H 8.4666665 12.385807 L 14.098881,0 H 8.4666665 Z" /><path
         id="path4868"
         style="display:inline;fill:#ff6152;fill-opacity:1;stroke:none;stroke-width:1;stroke-dasharray:none;stroke-opacity:1"
         d="m 15.955078,16 0.01172,4.572265 0.01953,7.775391 3.908203,-4.689453 c 2.017384,-2.420511 5.563312,-2.868337 8.119141,-1.025391 L 32.40625,25.80664 40.339843,16 H 32 Z"
         transform="scale(0.26458333)" /></g></g></svg>
