<?xml version="1.0" encoding="UTF-8" standalone="no"?>
<!-- Created with Inkscape (http://www.inkscape.org/) -->

<svg
   width="64.001953"
   height="64.001953"
   viewBox="0 0 16.93385 16.93385"
   version="1.1"
   id="svg5"
   xml:space="preserve"
   xmlns="http://www.w3.org/2000/svg"
   xmlns:svg="http://www.w3.org/2000/svg"><defs
     id="defs2" /><g
     id="layer40"
     style="display:inline"><g
       id="layer70"><path
         id="path4840"
         style="color:#000000;display:inline;fill:#ce69ff;fill-opacity:1;-inkscape-stroke:none"
         d="M 8.4666665,0 C 3.8032,0 0,3.8032 0,8.4666665 0,9.6371187 0.2396799,10.753236 0.67231037,11.76879 L 2.2680786,9.8541787 C 2.1694775,9.407914 2.1171834,8.9435759 2.1171834,8.4666665 c 0,-3.5195356 2.8299475,-6.3494831 6.3494831,-6.3494831 1.1756379,0 2.2738255,0.3169185 3.2158245,0.8686808 L 13.01936,1.3337687 C 11.703262,0.48996617 10.140448,0 8.4666665,0 Z M 15.33188,3.5217488 13.941268,5.2410237 c 0.555492,0.9442805 0.874882,2.0457272 0.874882,3.2256428 0,3.5195355 -2.829948,6.3494835 -6.3494835,6.3494835 -1.8046606,0 -3.4265485,-0.745013 -4.5800821,-1.944584 l -1.3539225,1.624707 c 1.5297957,1.505932 3.6263843,2.437577 5.9340046,2.437577 4.6634665,0 8.4671835,-3.803717 8.4671835,-8.4671835 0,-1.8434779 -0.595131,-3.5520627 -1.60197,-4.9449177 z" /><path
         id="path4842"
         style="display:inline;fill:#ce69ff;fill-opacity:1;stroke:none;stroke-width:0.707107;stroke-dasharray:none;stroke-opacity:1"
         d="m 32.138672,16.001953 c -0.344672,-0.0029 -0.693228,0.0037 -1.044922,0.02148 -3.859945,0.194784 -7.527328,1.816446 -10.341797,4.621094 -1.102119,1.098274 -1.408107,1.474217 -2.150391,2.585938 -0.448436,0.671626 -1.36129,2.472287 -1.65039,3.261718 -0.136669,0.373193 -0.253859,0.75068 -0.361328,1.13086 l 3.304687,-3.964844 a 6.0005999,6.0005999 0 0 1 8.119141,-1.025391 l 4.392578,3.173828 6.625,-8.189453 c -0.04998,-0.02446 -0.09816,-0.05223 -0.148438,-0.07617 -2.089856,-0.995316 -4.331438,-1.518703 -6.74414,-1.539063 z M 47.11914,26.701172 38.164062,37.773437 a 6.0005999,6.0005999 0 0 1 -8.179687,1.091797 L 25.527344,35.640625 19.863281,42.4375 c 0.95134,1.103435 2.047973,2.080711 3.248047,2.878906 2.385455,1.586616 5.036071,2.493543 8.335937,2.707031 0.771915,0.04994 2.330816,-0.05404 3.673829,-0.314453 6.147876,-1.19207 11.152051,-6.069341 12.503906,-12.183594 0.35934,-1.625226 0.33309,-1.357264 0.33789,-3.501953 0.0048,-2.137827 0.03307,-1.85988 -0.345703,-3.576172 -0.130728,-0.592354 -0.298076,-1.174975 -0.498047,-1.746093 z"
         transform="scale(0.26458333)" /><path
         style="display:none;fill:none;fill-opacity:1;stroke:#ababab;stroke-width:3.175;stroke-linecap:square;stroke-linejoin:round;stroke-dasharray:none;stroke-opacity:1"
         d="M -0.13229166,15.213541 6.4822913,7.2760413 8.8635412,8.9958329 16.139583,0"
         id="path4851" /></g></g></svg>
