<?xml version="1.0" encoding="UTF-8" standalone="no"?>
<!-- Created with Inkscape (http://www.inkscape.org/) -->

<svg
   width="64"
   height="64"
   viewBox="0 0 16.933333 16.933333"
   version="1.1"
   id="svg5"
   xml:space="preserve"
   xmlns="http://www.w3.org/2000/svg"
   xmlns:svg="http://www.w3.org/2000/svg"><defs
     id="defs2" /><g
     id="layer20"
     style="display:inline"><g
       id="layer21"><g
         id="g3894"
         style="display:inline;fill:#d31e3f;fill-opacity:1"><path
           style="color:#000000;display:none;fill:#d31e3f;fill-opacity:1;stroke-width:1.85208;stroke-linecap:round;-inkscape-stroke:none"
           d="M -0.6614583,15.213541 11.509374,3.0427082"
           id="path3890" /><path
           id="path3892"
           style="color:#000000;fill:#d31e3f;fill-opacity:1;stroke-linecap:round;-inkscape-stroke:none"
           d="M 11.509892,2.1171834 A 0.92604166,0.92604166 0 0 0 10.855668,2.3884847 L 0,13.242602 v 2.621029 L 12.164115,3.6974487 a 0.92604166,0.92604166 0 0 0 0,-1.308964 0.92604166,0.92604166 0 0 0 -0.654223,-0.2713013 z" /></g><path
         id="path3896"
         style="display:inline;fill:#d31e3f;fill-opacity:1;stroke:none;stroke-width:1.85208;stroke-linecap:round;stroke-dasharray:none;stroke-opacity:1"
         d="M 16.698205,5.6012084 C 15.706623,6.5888981 14.364142,7.1435423 12.964583,7.1437499 12.283671,7.1426796 11.609366,7.0102047 10.978658,6.7535928 L 6.7566934,10.977108 c 0.2557462,0.631402 0.3871705,1.306245 0.3870565,1.987475 -2.063e-4,1.399054 -0.5544497,2.741092 -1.541508,3.732589 0.6791395,0.156386 1.3737622,0.235608 2.0706746,0.236161 5.1143865,0 9.2604165,-4.14603 9.2604165,-9.2604165 -1.36e-4,-0.6972188 -0.07901,-1.3921921 -0.235128,-2.0717081 z" /><path
         style="fill:#d31e3f;fill-opacity:1;stroke:none;stroke-width:1.32292;stroke-linecap:butt;stroke-dasharray:none;stroke-opacity:1"
         d="M 2.6458332,0 H 4.4979163 V 2.6458332 H 7.1437496 V 4.4979163 H 4.4979163 V 7.1437496 H 2.6458332 V 4.4979163 H 0 V 2.6458332 h 2.6458332 z"
         id="path3902" /></g></g></svg>
