<?xml version="1.0" encoding="UTF-8" standalone="no"?>
<!-- Created with Inkscape (http://www.inkscape.org/) -->

<svg
   width="64"
   height="57.498047"
   viewBox="0 0 16.933333 15.213025"
   version="1.1"
   id="svg5"
   xml:space="preserve"
   xmlns="http://www.w3.org/2000/svg"
   xmlns:svg="http://www.w3.org/2000/svg"><defs
     id="defs2" /><g
     id="layer52"
     style="display:inline"
     transform="translate(0,-1.7203084)"><g
       id="layer76"><g
         id="g10159"><path
           style="color:#000000;display:none;fill:#efe7d6;stroke-width:1.5875;stroke-linecap:round;stroke-linejoin:round;-inkscape-stroke:none"
           d="M 16.404166,16.668749 8.3343746,16.933332 4.2333331,10.054166 11.773958,2.5135415 14.684374,5.4239581 9.7895828,10.318749 v 1.455209 l 2.3812502,3.836458 h 3.175 z"
           id="path10155" /><path
           id="path10157"
           style="color:#000000;fill:#8667ff;fill-opacity:1;stroke-linecap:round;stroke-linejoin:round;-inkscape-stroke:none"
           d="m 11.774475,1.7203084 c -0.203248,0 -0.406695,0.077922 -0.561723,0.2330607 L 3.6721272,9.4924437 C 3.4144939,9.7494356 3.3642409,10.148357 3.5506876,10.46086 l 3.8591959,6.472473 h 9.5234495 v -0.857312 l -0.0016,-0.0016 a 1.322917,1.322917 0 0 0 -1.321367,-1.257805 1.322917,1.322917 0 0 0 -0.147794,0.0093 c -0.0386,-0.0058 -0.07728,-0.0098 -0.116789,-0.0098 h -2.73265 L 10.58385,11.547099 v -0.898654 l 4.662248,-4.6643143 c 0.308975,-0.3098307 0.308975,-0.8110309 0,-1.1208618 L 12.335681,1.9533691 C 12.180653,1.7982304 11.977722,1.7203084 11.774475,1.7203084 Z" /></g><path
         id="path10336"
         style="fill:#8667ff;fill-opacity:1;stroke:none;stroke-width:2.64583;stroke-linecap:round;stroke-linejoin:round;stroke-dasharray:none;stroke-opacity:1"
         d="M 0,9.7895831 V 11.641666 H 2.7140462 L 1.6644979,9.8810504 c -0.017991,-0.030155 -0.035422,-0.06085 -0.052193,-0.091467 z M 0,12.435416 V 14.2875 H 4.2917276 L 3.1874023,12.435416 Z m 0,2.645834 v 1.852083 H 5.8694091 L 4.7650837,15.08125 Z" /></g></g></svg>
