<?xml version="1.0" encoding="UTF-8" standalone="no"?>
<!-- Created with Inkscape (http://www.inkscape.org/) -->

<svg
   width="59.025391"
   height="63.997921"
   viewBox="0 0 15.617134 16.932783"
   version="1.1"
   id="svg5"
   xml:space="preserve"
   xmlns="http://www.w3.org/2000/svg"
   xmlns:svg="http://www.w3.org/2000/svg"><defs
     id="defs2" /><g
     id="layer16"
     style="display:inline"
     transform="translate(-1.3161987,-5.5064994e-4)"><g
       id="layer17"
       style="display:inline"><g
         id="g2163"
         style="display:inline"
         transform="scale(1.0007941)"><path
           id="path2161"
           style="fill:#ec8d34;fill-opacity:1;stroke:none;stroke-width:0.0264583;stroke-linecap:round;stroke-linejoin:miter;stroke-dasharray:none;stroke-opacity:1"
           d="M 16.772736,3.7316924 C 15.581302,4.4580528 14.237845,4.890522 12.853091,4.9993421 L 4.9993421,12.853607 C 4.8906957,14.236 4.4594919,15.577091 3.7353068,16.767056 4.3372412,16.866846 4.9463411,16.917881 5.5564884,16.919897 11.8324,16.919774 16.919774,11.8324 16.919897,5.5564884 16.919955,4.9452865 16.870824,4.3349729 16.772736,3.7316924 Z M 10.501613,4.8619919 4.8619919,10.50213 c 0.034647,0.177092 0.063508,0.355209 0.087264,0.53391 L 11.03604,4.9492557 c -0.178829,-0.023765 -0.357209,-0.052593 -0.534427,-0.087264 z" /></g><g
         id="g2169"
         style="display:inline"><path
           id="ellipse2165"
           style="fill:#796cff;fill-opacity:1;stroke-width:0.283783"
           d="M -8.4942639,8.4891482 C -7.7201368,7.6532403 -7.2917501,6.5682804 -7.2917077,5.4434763 -7.2945984,3.1800637 -9.0075573,1.2625399 -11.312287,0.94275148 V 9.9442011 c 1.085599,-0.1492753 2.0828878,-0.6642135 2.8180231,-1.4550529 z"
           transform="rotate(-135)" /><path
           id="path2167"
           style="fill:#796cff;fill-opacity:1;stroke-width:0.264856"
           d="M 9.0051349,1.3068969 1.9254638,8.3255898 H 5.0322509 L 1.3161987,14.681791 11.848372,4.1496174 Z" /></g></g></g></svg>
