<?xml version="1.0" encoding="UTF-8" standalone="no"?>
<!-- Created with Inkscape (http://www.inkscape.org/) -->

<svg
   width="64"
   height="59"
   viewBox="0 0 16.933333 15.610416"
   version="1.1"
   id="svg5"
   xml:space="preserve"
   xmlns="http://www.w3.org/2000/svg"
   xmlns:svg="http://www.w3.org/2000/svg"><defs
     id="defs2" /><g
     id="layer50"
     style="display:inline"
     transform="translate(0,-1.3229166)"><g
       id="layer75"><g
         id="path6414"><path
           style="color:#000000;display:none;fill:#efe7d6;stroke-width:1.5875;stroke-linecap:round;stroke-linejoin:round;-inkscape-stroke:none"
           d="M 16.404166,16.668749 8.3343746,16.933332 4.2333331,10.054166 11.773958,2.5135415 14.684374,5.4239581 9.7895828,10.318749 v 1.455209 l 2.3812502,3.836458 h 3.175 z"
           id="path9631" /><path
           id="path9633"
           style="color:#000000;fill:#efe7d6;stroke-linecap:round;stroke-linejoin:round;-inkscape-stroke:none"
           d="m 11.774475,1.7203084 c -0.203248,0 -0.406695,0.077922 -0.561723,0.2330607 L 3.6721272,9.4924437 C 3.4144939,9.7494356 3.3642409,10.148357 3.5506876,10.46086 l 3.8591959,6.472473 h 9.5234495 v -0.857312 l -0.0016,-0.0016 a 1.322917,1.322917 0 0 0 -1.321367,-1.257805 1.322917,1.322917 0 0 0 -0.147794,0.0093 c -0.0386,-0.0058 -0.07728,-0.0098 -0.116789,-0.0098 h -2.73265 L 10.58385,11.547099 v -0.898654 l 4.662248,-4.6643143 c 0.308975,-0.3098307 0.308975,-0.8110309 0,-1.1208618 L 12.335681,1.9533691 C 12.180653,1.7982304 11.977722,1.7203084 11.774475,1.7203084 Z" /></g><path
         id="path9848"
         style="display:inline;fill:#efe7d6;fill-opacity:1;stroke:none;stroke-width:1.5875;stroke-linecap:round;stroke-linejoin:round;stroke-dasharray:none;stroke-opacity:1"
         d="M 0,1.3229166 V 3.1749999 H 8.1204344 L 9.9725177,1.3229166 Z m 0,3.175 V 6.3499999 H 4.9444009 L 6.797001,4.4979166 Z m 0,3.1749999 v 1.8520833 h 1.7683675 l 1.8526,-1.8520833 z" /></g></g></svg>
