<?xml version="1.0" encoding="UTF-8" standalone="no"?>
<!-- Created with Inkscape (http://www.inkscape.org/) -->

<svg
   width="63.995163"
   height="56.855282"
   viewBox="0 0 16.932053 15.04296"
   version="1.1"
   id="svg5"
   xml:space="preserve"
   xmlns="http://www.w3.org/2000/svg"
   xmlns:svg="http://www.w3.org/2000/svg"><defs
     id="defs2" /><g
     id="layer56"
     style="display:inline"
     transform="translate(-7.3718299e-4,-0.55664062)"><g
       id="layer78"><path
         style="color:#000000;fill:#efe7d6;fill-opacity:1;-inkscape-stroke:none"
         d="M 8.4667969,0.55664062 0.17943032,8.8421507 a 0.60993166,0.60993166 90.003208 0 0 -4.83e-5,0.8626219 L 1.9358524,11.461243 a 0.60990235,0.60990235 179.99541 0 0 0.8626012,-6.9e-5 L 8.4648438,5.7929687 14.133118,11.461243 a 0.61022744,0.61022744 0.01067984 0 0 0.862831,1.61e-4 l 1.758102,-1.7567922 a 0.60970434,0.60970434 90.00747 0 0 1.13e-4,-0.8624611 z"
         id="path16120" /><path
         style="color:#000000;fill:#eae1cb;-inkscape-stroke:none"
         d="M 8.4667969,9.1328125 4.3906628,13.208947 a 0.50000004,0.50000004 90.000003 0 0 0,0.707106 l 1.5370338,1.537035 a 0.50022349,0.50022349 0.01280746 0 0 0.7072648,1.58e-4 l 1.8318355,-1.830199 1.8318361,1.830199 a 0.50022345,0.50022345 179.98719 0 0 0.707264,-1.58e-4 l 1.537034,-1.537035 a 0.50000013,0.50000013 89.999995 0 0 0,-0.707106 z"
         id="path17123" /></g></g></svg>
