<?xml version="1.0" encoding="UTF-8" standalone="no"?>
<!-- Created with Inkscape (http://www.inkscape.org/) -->

<svg
   width="64.080002"
   height="43.031258"
   viewBox="0 0 16.9545 11.385353"
   version="1.1"
   id="svg5"
   xml:space="preserve"
   xmlns="http://www.w3.org/2000/svg"
   xmlns:svg="http://www.w3.org/2000/svg"><defs
     id="defs2" /><g
     id="layer22"
     style="display:inline"
     transform="translate(0.01058312,-2.1083966)"><g
       id="layer23"><path
         id="path4043"
         style="display:inline;fill:#d31e3f;fill-opacity:1;stroke:none;stroke-width:1.32292;stroke-linecap:butt;stroke-dasharray:none;stroke-opacity:1"
         d="m 4.9733397,2.1083984 c -0.3348629,0 -1.0045898,0.074415 -1.0045898,0.6697265 0,0.6614577 1.1906257,2.2489586 1.8520833,2.5135417 -0.264583,-1.1906237 0.5291667,-2.2489587 0.5291667,-2.5135417 0,-0.5291662 -0.5291674,-0.6614583 -1.190625,-0.6614583 0,0 -0.074414,-0.00827 -0.1860352,-0.00827 z m 6.9866543,0 c 0.334863,0 1.00459,0.074415 1.00459,0.6697265 0,0.6614577 -1.190626,2.2489586 -1.852083,2.5135417 0.264583,-1.1906237 -0.529167,-2.2489587 -0.529167,-2.5135417 0,-0.5291662 0.529167,-0.6614583 1.190625,-0.6614583 0,0 0.07441,-0.00827 0.186035,-0.00827 z M 1.8520833,2.1166684 C -0.26458111,2.1166666 0,3.0427082 0,4.7624999 0,9.2604118 3.4395839,13.49375 4.2333332,13.49375 2.1166687,7.6729229 3.7041667,3.9687491 3.7041666,3.1749999 3.7041665,2.5135415 3.4395817,2.1166666 1.8520833,2.1166666 Z m 13.2291677,0 c 2.116664,-1.8e-6 1.852083,0.9260398 1.852083,2.6458315 0,4.4979119 -3.439584,8.7312501 -4.233333,8.7312501 2.116664,-5.8208271 0.529166,-9.5250009 0.529166,-10.3187501 0,-0.6614584 0.264585,-1.0583333 1.852084,-1.0583333 z m -7.8052095,0 c -0.8863422,10e-8 -0.6614583,0.3968752 -0.6614583,0.5291667 0,0.264583 0.7937501,1.5875006 0.9260417,2.1166666 C 7.7307939,4.4731122 8.5989568,2.1166666 7.2760415,2.1166666 Z m 2.3812509,0 c 0.8863426,10e-8 0.6614586,0.3968752 0.6614586,0.5291667 0,0.264583 -0.7937504,1.5875006 -0.926042,2.1166666 C 9.20254,4.4731122 8.3343771,2.1166666 9.6572924,2.1166666 Z"
         class="UnoptimicedTransforms" /></g></g></svg>
