<?xml version="1.0" encoding="UTF-8" standalone="no"?>
<!-- Created with Inkscape (http://www.inkscape.org/) -->

<svg
   width="64"
   height="64"
   viewBox="0 0 16.933333 16.933333"
   version="1.1"
   id="svg5"
   xml:space="preserve"
   xmlns="http://www.w3.org/2000/svg"
   xmlns:svg="http://www.w3.org/2000/svg"><defs
     id="defs2" /><g
     id="layer18"
     style="display:inline"><g
       id="layer19"><g
         id="g3775"
         style="display:inline"><g
           id="g3769"><path
             id="path3767"
             style="color:#000000;fill:#ffe78c;stroke-linecap:round;-inkscape-stroke:none"
             d="M 6.154663,7.0889728 0,13.242602 v 2.621029 L 7.4641437,8.3984536 Z" /></g><path
           id="path3771"
           style="fill:#ffe78c;fill-opacity:1;stroke:none;stroke-width:1.85208;stroke-linecap:round;stroke-dasharray:none;stroke-opacity:1"
           d="m 8.3994871,9.333797 -1.6427937,1.643311 c 0.2557459,0.631401 0.3871705,1.306246 0.3870565,1.987475 -2.063e-4,1.399053 -0.5544507,2.741093 -1.541508,3.732589 0.6791388,0.156386 1.3737629,0.235608 2.0706746,0.236161 2.3191672,0 4.4390795,-0.852596 6.0637125,-2.261361 z" /><path
           id="path3773"
           style="fill:#ffe78c;fill-opacity:1;stroke:none;stroke-width:4.49792;stroke-linecap:round;stroke-dasharray:none;stroke-opacity:1"
           d="M 0,0.93327635 V 2.1166666 H 1.1833903 Z M 0,3.1749999 V 5.2916666 H 4.3578734 L 2.2412068,3.1749999 Z m 0,3.175 V 8.4666665 H 2.905249 L 5.0219156,6.3499999 Z" /></g><g
         id="g3785"
         style="display:inline"><path
           id="path3777"
           mask="none"
           style="display:inline;fill:#ece8d3;fill-opacity:1;stroke:none;stroke-width:1.32292;stroke-linecap:round;stroke-linejoin:miter;stroke-dasharray:none;stroke-opacity:1"
           d="M 5.0849608,2.6458333 C 5.188252,3.5496128 5.4207096,4.2339655 5.7004271,4.766634 l 1.9218465,1.9213297 c 0.3461585,0.1816845 0.6350449,0.4957295 0.8319906,0.8319906 l 0.015503,0.015503 C 8.694276,7.1457136 9.0426435,6.7836813 9.460921,6.6192341 c 0,0 0.4514522,-0.154675 1.093473,-0.8769491 0.533182,-0.5998292 1.112736,-1.5106156 1.293978,-3.0964517 H 8.4666665 Z" /><path
           id="path3852"
           style="color:#000000;fill:#ece8d3;stroke-linecap:round;-inkscape-stroke:none"
           d="M 3.043225,0.92552488 C 2.7268014,0.92713051 2.4558325,1.1526131 2.3967529,1.4634765 l 1.383378,1.3828613 C 3.7321199,2.4568112 3.7052001,2.0386868 3.7052001,1.5880167 3.705771,1.2220982 3.4091438,0.92523947 3.043225,0.92552488 Z m 10.8474,0 C 13.524706,0.92523953 13.228079,1.2220983 13.22865,1.5880167 c 0,2.5613952 -0.852252,4.0979977 -1.683618,5.0332844 -0.831368,0.935287 -1.5999028,1.2304159 -1.5999028,1.2304159 -0.00818,0.0038 -0.016274,0.00776 -0.024288,0.011885 -0.02355,0.010029 -0.046499,0.021417 -0.06873,0.034107 -0.011245,0.00707 -0.022274,0.014483 -0.033073,0.022221 -0.021155,0.013642 -0.041514,0.02848 -0.060978,0.044442 -0.00938,0.00852 -0.018513,0.01731 -0.027388,0.026355 -0.019197,0.017856 -0.037316,0.036837 -0.05426,0.056844 -0.00676,0.00862 -0.013311,0.017409 -0.019637,0.026355 -0.016572,0.021942 -0.03176,0.044897 -0.045475,0.06873 -0.0062,0.011537 -0.012063,0.023255 -0.01757,0.03514 -0.00837,0.015361 -0.016128,0.031049 -0.023254,0.047026 -0.0018,0.00566 -0.00352,0.011346 -0.00517,0.017053 -0.0059,0.017348 -0.011067,0.034933 -0.015503,0.05271 -0.00553,0.019244 -0.010188,0.038728 -0.013953,0.058394 -0.00283,0.018165 -0.0049,0.03644 -0.0062,0.054777 -0.00208,0.019573 -0.00329,0.03923 -0.00362,0.058911 2.977e-4,0.020026 0.0015,0.040028 0.00362,0.059945 0.00135,0.017819 0.00342,0.035576 0.0062,0.053227 0.00204,0.00935 0.00428,0.018653 0.00672,0.027905 l 0.5348508,0.534851 c 0.254392,0.1263121 0.842985,0.4672512 1.467611,1.169955 0.254861,0.286719 0.511542,0.630892 0.745174,1.04283 l 2.104781,2.103748 C 14.074458,11.619619 13.310297,10.307896 12.533085,9.4335325 12.169753,9.0247845 11.798882,8.7069988 11.471134,8.4666665 11.798821,8.2263554 12.169844,7.9084461 12.533085,7.4998005 13.553797,6.3514999 14.5526,4.4505636 14.5526,1.5880167 14.553171,1.2220983 14.256544,0.92523953 13.890625,0.92552488 Z" /><path
           id="path3781"
           style="fill:#ece8d3;fill-opacity:1;stroke-width:0.264583"
           d="M 0.93327635,0 2.5212931,1.5875 H 16.933333 V 0 Z" /><path
           id="path3783"
           style="display:none;fill:#ece8d3;fill-opacity:1;stroke-width:0.264583"
           d="m 16.281693,15.345833 0.65164,0.65164 v -0.65164 z m 0.65164,1.58595 -0.0016,0.0016 h 0.0016 z" /></g></g></g></svg>
