<?xml version="1.0" encoding="UTF-8" standalone="no"?>
<!-- Created with Inkscape (http://www.inkscape.org/) -->

<svg
   width="64.00235"
   height="64.001953"
   viewBox="0 0 16.933955 16.93385"
   version="1.1"
   id="svg5"
   xml:space="preserve"
   xmlns="http://www.w3.org/2000/svg"
   xmlns:svg="http://www.w3.org/2000/svg"><defs
     id="defs2" /><g
     id="layer38"
     style="display:inline"><g
       id="layer68"
       style="display:none"><path
         style="display:inline;fill:#219a5b;fill-opacity:1;stroke-width:1.32292"
         d="M 8.4666663,16.933333 C 5.0270831,13.493749 0,9.2604162 0,6.217708 0,2.1166666 4.2333331,-1.8520832 8.4666663,3.96875 Z m 0.00125,0 C 11.907499,13.493749 16.934582,9.2604162 16.934582,6.217708 c 0,-4.1010414 -4.233333,-8.0697912 -8.4666661,-2.248958 z"
         id="path4373"
         class="UnoptimicedTransforms"
         transform="matrix(0.4980625,0,0,0.4980625,4.2497372,3.7369744)" /><path
         id="path3259-9"
         style="color:#000000;display:inline;fill:#f2ba58;fill-opacity:1;-inkscape-stroke:none"
         d="m 0,0 v 8.7302163 c 0,1.0583308 0.56722762,1.8248457 1.2381673,2.6680537 0.6709397,0.843209 1.5329069,1.700515 2.4256917,2.490288 0.8927848,0.789771 1.8133634,1.506375 2.6055256,2.043286 0.3960812,0.268453 0.7569251,0.49257 1.089856,0.664042 0.2005795,0.103306 0.36159,0.204862 0.5782592,0.269234 V 14.491105 C 7.7913229,14.401245 7.6293926,14.296401 7.456909,14.179496 6.7607947,13.707684 5.893359,13.036252 5.0663573,12.304675 4.2393557,11.573097 3.4471514,10.77675 2.8943969,10.082072 2.3416425,9.3873938 2.1171834,8.7302153 2.1171834,8.7302163 V 2.1171834 H 7.9374998 V 0 Z" /><path
         id="path3561-6"
         style="color:#000000;display:inline;fill:#52dfff;fill-opacity:1;-inkscape-stroke:none"
         d="M 8.9963499,0.01705322 V 2.1394043 c 3.2695891,0.2671126 5.8198001,2.9861069 5.8198001,6.3272622 0,3.3411585 -2.550206,6.0606715 -5.8198001,6.3277795 v 2.122351 C 13.414702,16.641839 16.93385,12.952253 16.93385,8.4666665 c 0,-4.48558 -3.519156,-8.17464701 -7.9375001,-8.44961328 z" /></g><g
       id="g513"
       style="display:inline"><path
         style="display:inline;fill:#219a5b;fill-opacity:1;stroke-width:1.32292"
         d="M 8.4666663,16.933333 C 5.0270831,13.493749 0,9.2604162 0,6.217708 0,2.1166666 4.2333331,-1.8520832 8.4666663,3.96875 Z m 0.00125,0 C 11.907499,13.493749 16.934582,9.2604162 16.934582,6.217708 c 0,-4.1010414 -4.233333,-8.0697912 -8.4666661,-2.248958 z"
         id="path507"
         class="UnoptimicedTransforms"
         transform="matrix(0.4980625,0,0,0.4980625,4.2497372,3.7369744)" /><path
         id="path509"
         style="color:#000000;display:inline;fill:#52dfff;fill-opacity:1;-inkscape-stroke:none"
         d="M 0.01705322,8.9958332 C 0.2917652,13.414418 3.9809125,16.93385 8.4666665,16.93385 c 4.4857605,0 8.1754275,-3.519423 8.4501305,-7.9380168 H 14.794446 C 14.527581,12.265673 11.808,14.81615 8.4666665,14.81615 c -3.3413454,0 -6.0609303,-2.55046 -6.327779,-5.8203168 z" /><path
         id="path511"
         style="color:#000000;display:inline;fill:#f2ba58;fill-opacity:1;-inkscape-stroke:none"
         d="M 0,0 V 7.9374998 H 2.1171834 V 2.1171834 H 8.4666665 14.81615 v 5.8203164 h 2.117183 C 16.934302,10.961681 16.93385,0.51886493 16.93385,0 H 8.4666665 Z" /></g></g></svg>
