<?xml version="1.0" encoding="UTF-8" standalone="no"?>
<!-- Created with Inkscape (http://www.inkscape.org/) -->

<svg
   width="64"
   height="64"
   viewBox="0 0 16.933333 16.933333"
   version="1.1"
   id="svg5"
   xml:space="preserve"
   xmlns="http://www.w3.org/2000/svg"
   xmlns:svg="http://www.w3.org/2000/svg"><defs
     id="defs2" /><g
     id="layer3"
     transform="scale(1.0007941)"
     style="display:inline"><g
       id="layer4"><g
         id="path1245"><path
           style="color:#000000;display:none;fill:#ec8d34;stroke-width:3.36706;stroke-linecap:round;stroke-dasharray:none"
           d="M -1.1906249,12.303124 9.9218745,1.1906249"
           id="path2695" /><path
           id="path2697"
           style="color:#000000;fill:#ec8d34;stroke-linecap:round;-inkscape-stroke:none"
           d="M 8.7302163,0 0,8.7322834 V 13.494266 L 11.113533,2.3807332 A 1.683545,1.683545 0 0 0 11.113533,0 Z" /></g><path
         id="path1995"
         style="fill:#ec8d34;fill-opacity:1;stroke:none;stroke-width:0.0264583;stroke-linecap:round;stroke-linejoin:miter;stroke-dasharray:none;stroke-opacity:1"
         d="M 16.772619,3.7315551 C 15.386301,4.5767274 13.794467,5.0248721 12.170833,5.0270832 11.61049,5.0250187 11.051605,4.9698223 10.501684,4.8622354 L 4.8622354,10.502201 c 0.1075544,0.549752 0.1627506,1.108462 0.1648478,1.668632 -0.00216,1.621359 -0.449009,3.211065 -1.2919107,4.596102 0.601935,0.09979 1.2109295,0.150946 1.8210774,0.152962 6.2759181,-1.23e-4 11.3635241,-5.087729 11.3636471,-11.3636471 5.8e-5,-0.6112025 -0.04919,-1.2214136 -0.147278,-1.8246948 z" /></g></g></svg>
