<?xml version="1.0" encoding="UTF-8" standalone="no"?>
<!-- Created with Inkscape (http://www.inkscape.org/) -->

<svg
   width="64"
   height="64"
   viewBox="0 0 16.933333 16.933333"
   version="1.1"
   id="svg5"
   xml:space="preserve"
   xmlns="http://www.w3.org/2000/svg"
   xmlns:svg="http://www.w3.org/2000/svg"><defs
     id="defs2" /><g
     id="layer58"
     style="display:inline"><g
       id="layer79"><path
         style="fill:#efe7d6;fill-opacity:1;stroke:none;stroke-width:3.175;stroke-linecap:butt;stroke-linejoin:miter;stroke-dasharray:none;stroke-opacity:1"
         d="M 0,16.933333 11.1125,1.8520833 6.614583,0 h 10.31875 V 10.31875 L 15.081249,5.820833 Z"
         id="path17374" /><path
         id="path17537"
         style="color:#000000;fill:#efe7d6;fill-opacity:1;-inkscape-stroke:none"
         d="m 0,7.6599974 v 1.8515665 c 1.1749434,0 2.284285,0.2712161 3.2700846,0.7539591 L 4.3780273,8.7617389 C 3.073018,8.0592271 1.5820438,7.6599974 0,7.6599974 Z m 8.1715941,4.8953086 -1.5037842,1.107942 c 0.4827261,0.985809 0.7538796,2.095185 0.7539592,3.270085 h 1.8515665 c -8.7e-5,-1.582024 -0.3992321,-3.07299 -1.1017415,-4.378027 z" /><path
         id="circle17695"
         style="color:#000000;fill:#efe7d6;fill-opacity:1;-inkscape-stroke:none"
         d="m 0.08009847,1.0624674 c -0.02676709,0 -0.05336232,9e-4 -0.08009847,0.00103 v 1.8536335 c 0.02674777,-1.501e-4 0.05331474,-0.00103 0.08009847,-0.00103 2.61727943,0 5.06374993,0.7187603 7.15408513,1.968872 L 8.3323078,3.394108 C 5.9295998,1.9160515 3.1030515,1.0624674 0.08009847,1.0624674 Z M 13.538708,8.5999917 12.04836,9.6986326 c 1.250389,2.0899974 1.969389,4.5358154 1.969389,7.1530514 0,0.0273 -8.78e-4,0.05438 -10e-4,0.08165 h 1.853117 c 1.39e-4,-0.02729 10e-4,-0.05433 10e-4,-0.08165 0,-3.022953 -0.853857,-5.849228 -2.332158,-8.2516923 z" /></g></g></svg>
