<?xml version="1.0" encoding="UTF-8" standalone="no"?>
<!-- Created with Inkscape (http://www.inkscape.org/) -->

<svg
   width="64"
   height="59.5"
   viewBox="0 0 16.933333 15.742708"
   version="1.1"
   id="svg5"
   xml:space="preserve"
   xmlns="http://www.w3.org/2000/svg"
   xmlns:svg="http://www.w3.org/2000/svg"><defs
     id="defs2" /><g
     id="g2089"
     style="display:inline"
     transform="translate(0,-1.190625)"><g
       id="g2087"><path
         id="path2083"
         style="fill:#5a5955;fill-opacity:1;stroke:none;stroke-width:2.64583;stroke-linecap:butt;stroke-linejoin:round;stroke-dasharray:none;stroke-opacity:1"
         d="M 14.2875,1.190625 4.1010416,11.377083 3.4395833,10.715625 3.4390665,10.716142 A 0.8463316,0.8463316 0 0 0 2.7781249,10.398332 0.8463316,0.8463316 0 0 0 1.931665,11.244791 0.8463316,0.8463316 0 0 0 2.2494751,11.905733 L 2.2489583,11.90625 2.9104166,12.567708 0,15.478125 v 1.455208 h 1.4552083 l 2.9104166,-2.910417 0.6702433,0.670244 a 0.8463316,0.8463316 0 0 0 0.1147217,0.114721 l 0.00879,0.0088 5.168e-4,-5.16e-4 a 0.8463316,0.8463316 0 0 0 0.5286499,0.185518 0.8463316,0.8463316 0 0 0 0.8464599,-0.84646 0.8463316,0.8463316 0 0 0 -0.1855184,-0.52865 l 5.168e-4,-5.17e-4 -0.00568,-0.0057 A 0.8463316,0.8463316 0 0 0 6.2233926,13.499434 L 5.5562499,12.832291 12.832291,5.5562499 C 14.287498,4.0745848 14.2875,1.190625 14.2875,1.190625 Z"
         class="UnoptimicedTransforms" /><path
         class="UnoptimicedTransforms"
         id="path2095"
         d="M 14.2875,1.190625 4.1010416,11.377083 3.4395833,10.715625 3.4390665,10.716142 A 0.8463316,0.8463316 0 0 0 2.7781249,10.398332 0.8463316,0.8463316 0 0 0 1.931665,11.244791 0.8463316,0.8463316 0 0 0 2.2494751,11.905733 L 2.2489583,11.90625 2.9104166,12.567708 0,15.478125 v 1.455208 h 1.4552083 l 2.9104166,-2.910417 0.6702433,0.670244 a 0.8463316,0.8463316 0 0 0 0.1147217,0.114721 l 0.00879,0.0088 5.168e-4,-5.16e-4 a 0.8463316,0.8463316 0 0 0 0.5286499,0.185518 0.8463316,0.8463316 0 0 0 0.8464599,-0.84646 0.8463316,0.8463316 0 0 0 -0.1855184,-0.52865 l 5.168e-4,-5.17e-4 -0.00568,-0.0057 A 0.8463316,0.8463316 0 0 0 6.2233926,13.499434 L 5.5562499,12.832291 12.832291,5.5562499 C 14.287498,4.0745848 14.2875,1.190625 14.2875,1.190625 Z"
         style="fill:#5a5955;fill-opacity:1;stroke:none;stroke-width:2.64583;stroke-linecap:butt;stroke-linejoin:round;stroke-dasharray:none;stroke-opacity:1"
         transform="matrix(-1,0,0,1,16.933333,0)" /></g></g></svg>
