<?xml version="1.0" encoding="UTF-8" standalone="no"?>
<!-- Created with Inkscape (http://www.inkscape.org/) -->

<svg
   width="64.001953"
   height="64.001953"
   viewBox="0 0 16.93385 16.93385"
   version="1.1"
   id="svg5"
   xml:space="preserve"
   xmlns="http://www.w3.org/2000/svg"
   xmlns:svg="http://www.w3.org/2000/svg"><defs
     id="defs2" /><g
     id="layer39"
     style="display:inline"><g
       id="layer69"
       style="display:inline"><path
         id="path4612"
         style="color:#000000;display:inline;fill:#ff6152;fill-opacity:1;-inkscape-stroke:none"
         d="m 0,0 v 8.7302163 c 0,0.991327 0.49920639,1.7272967 1.1136271,2.5094077 L 2.5223266,9.548771 C 2.2389886,9.0852336 2.1171834,8.7302156 2.1171834,8.7302163 V 2.1171834 H 8.4666665 12.385807 L 14.098881,0 H 8.4666665 Z m 16.93385,1.5409912 -2.1177,2.6184448 v 4.5707803 c 0,-1e-6 -0.224459,0.6571775 -0.777214,1.3518557 -0.552754,0.694678 -1.344959,1.491025 -2.17196,2.222603 -0.827002,0.731577 -1.694438,1.403009 -2.390552,1.874821 -0.3480573,0.235905 -0.6559103,0.423653 -0.872815,0.535368 -0.048497,0.02498 -0.095919,0.04309 -0.137976,0.05736 C 8.42353,14.757974 8.376503,14.739754 8.3281737,14.714864 8.111269,14.603149 7.8049663,14.415401 7.456909,14.179496 6.7607947,13.707684 5.893359,13.036252 5.0663573,12.304675 4.9304767,12.184473 4.7963751,12.062283 4.6632812,11.939323 L 3.3067748,13.56713 c 0.1183021,0.108211 0.2372851,0.215451 0.3570842,0.321428 0.8927848,0.789771 1.8133634,1.506375 2.6055256,2.043286 0.3960812,0.268453 0.7569251,0.49257 1.089856,0.664042 0.3329307,0.171472 0.5562117,0.337964 1.1074259,0.337964 0.5512141,0 0.7744951,-0.166492 1.1074259,-0.337964 0.3329309,-0.171472 0.6937756,-0.395589 1.0898556,-0.664042 0.792163,-0.536911 1.712742,-1.253515 2.605526,-2.043286 0.892785,-0.789773 1.75475,-1.647079 2.425692,-2.490288 0.670939,-0.843208 1.238684,-1.6097229 1.238684,-2.6680537 z" /><path
         id="path4614"
         style="display:inline;fill:#ff6152;fill-opacity:1;stroke:none;stroke-width:1;stroke-dasharray:none;stroke-opacity:1"
         d="m 15.955078,16 0.01172,4.572265 0.01953,7.775391 3.908203,-4.689453 a 6.0005999,6.0005999 0 0 1 8.119141,-1.025391 L 32.40625,25.80664 40.339843,16 H 32 Z m 32.064453,9.585937 -9.855469,12.1875 a 6.0005999,6.0005999 0 0 1 -8.179687,1.091797 l -4.457031,-3.224609 -2.757813,3.310547 c 2.94962,2.717039 6.290395,5.344837 9.220703,7.367187 0.05402,-0.03863 0.10593,-0.07648 0.160156,-0.115234 3.856763,-2.756098 7.713048,-5.841581 10.986328,-9.119141 3.129358,-3.133448 4.18238,-4.602867 4.869141,-5.914062 z"
         transform="scale(0.26458333)" /><path
         style="display:none;fill:none;fill-opacity:1;stroke:#ababab;stroke-width:3.175;stroke-linecap:square;stroke-linejoin:round;stroke-dasharray:none;stroke-opacity:1"
         d="M -0.13229166,15.213541 6.4822913,7.2760413 8.8635412,8.9958329 16.139583,0"
         id="path4733" /></g></g></svg>
