<?xml version="1.0" encoding="UTF-8" standalone="no"?>
<!-- Created with Inkscape (http://www.inkscape.org/) -->

<svg
   width="64.040001"
   height="64"
   viewBox="0 0 16.943917 16.933333"
   version="1.1"
   id="svg5"
   xml:space="preserve"
   xmlns="http://www.w3.org/2000/svg"
   xmlns:svg="http://www.w3.org/2000/svg"><defs
     id="defs2" /><g
     id="layer86"
     style="display:inline"><g
       id="layer87"><g
         id="g22691"
         style="display:inline;fill:#d31e3f;fill-opacity:1"><path
           style="color:#000000;display:none;fill:#d31e3f;fill-opacity:1;stroke-width:1.85208;stroke-linecap:round;-inkscape-stroke:none"
           d="M -0.6614583,15.213541 11.509374,3.0427082"
           id="path22687" /><path
           id="path22689"
           style="color:#000000;fill:#d31e3f;fill-opacity:1;stroke-linecap:round;-inkscape-stroke:none"
           d="M 6.154663,7.0889728 0,13.242602 v 2.621029 L 7.4641437,8.3984536 Z" /></g><path
         id="path22693"
         style="display:inline;fill:#d31e3f;fill-opacity:1;stroke:none;stroke-width:1.85208;stroke-linecap:round;stroke-dasharray:none;stroke-opacity:1"
         d="m 8.3994871,9.333797 -1.6427937,1.643311 c 0.2557459,0.631401 0.3871705,1.306246 0.3870565,1.987475 -2.063e-4,1.399053 -0.5544507,2.741093 -1.541508,3.732589 0.6791388,0.156386 1.3737629,0.235608 2.0706746,0.236161 2.3191672,0 4.4390795,-0.852596 6.0637125,-2.261361 z" /><path
         style="display:inline;fill:#d31e3f;fill-opacity:1;stroke:none;stroke-width:1.32292;stroke-linecap:butt;stroke-dasharray:none;stroke-opacity:1"
         d="M 2.6458332,0 H 4.4979163 V 2.6458332 H 7.1437496 V 4.4979163 H 4.4979163 V 7.1437496 H 2.6458332 V 4.4979163 H 0 V 2.6458332 h 2.6458332 z"
         id="path22695" /><path
         id="path22707"
         style="display:inline;fill:#d31e3f;fill-opacity:1;stroke:none;stroke-width:1.32292;stroke-linecap:butt;stroke-dasharray:none;stroke-opacity:1"
         d="m 4.9733397,2.1083984 c 0.1116211,0 0.1860352,0.00827 0.1860352,0.00827 0.6614569,0 1.190625,0.1322927 1.190625,0.6614583 0,0.2645828 -0.7937494,1.3229192 -0.5291667,2.5135417 C 5.1593763,5.0270837 3.9687499,3.439582 3.9687499,2.7781249 c 0,-0.5953109 0.6697273,-0.6697265 1.0045898,-0.6697265 z m 2.3027018,0.00827 c 1.322914,0 0.4547522,2.3564441 0.2645834,2.6458333 C 7.4083334,4.2333344 6.6145832,2.910416 6.6145832,2.6458333 c 0,-0.1322914 -0.224883,-0.5291666 0.6614583,-0.5291667 z m -5.4239582,0 c 1.5874968,0 1.8520832,0.3968756 1.8520833,1.0583333 10e-8,0.7327301 -1.3527034,3.9458258 0.1043864,9.0144373 L 3.2364949,12.761495 C 1.9342549,11.359755 0,8.135517 0,4.7624999 0,3.0427099 -0.264579,2.1166648 1.8520833,2.1166666 Z"
         transform="matrix(-1,0,0,1,16.933333,0)" /></g></g></svg>
